<svg xmlns="http://www.w3.org/2000/svg" viewBox="0 0 512 512">
  <defs>
    <linearGradient id="bg" x1="74" y1="46" x2="438" y2="466" gradientUnits="userSpaceOnUse">
      <stop stop-color="#10141c"/>
      <stop offset=".52" stop-color="#1c2430"/>
      <stop offset="1" stop-color="#06080d"/>
    </linearGradient>
    <linearGradient id="wall" x1="130" y1="78" x2="380" y2="448" gradientUnits="userSpaceOnUse">
      <stop stop-color="#46515f"/>
      <stop offset=".45" stop-color="#2d3745"/>
      <stop offset="1" stop-color="#151b24"/>
    </linearGradient>
    <linearGradient id="route" x1="174" y1="94" x2="354" y2="430" gradientUnits="userSpaceOnUse">
      <stop stop-color="#8ee6ff"/>
      <stop offset=".42" stop-color="#20a7ff"/>
      <stop offset="1" stop-color="#51f2a3"/>
    </linearGradient>
    <filter id="glow" x="-40%" y="-40%" width="180%" height="180%">
      <feGaussianBlur stdDeviation="8" result="blur"/>
      <feColorMatrix in="blur" type="matrix" values="0 0 0 0 0.05 0 0 0 0 0.63 0 0 0 0 1 0 0 0 .72 0"/>
      <feMerge>
        <feMergeNode/>
        <feMergeNode in="SourceGraphic"/>
      </feMerge>
    </filter>
    <clipPath id="round">
      <rect width="512" height="512" rx="112"/>
    </clipPath>
  </defs>
  <g clip-path="url(#round)">
    <rect width="512" height="512" fill="url(#bg)"/>
    <path d="M92 452 182 86h152l86 366H92Z" fill="url(#wall)"/>
    <path d="M186 86 92 452h72L262 86h-76Z" fill="#5f6c7b" opacity=".24"/>
    <path d="M284 86 186 452h92L350 86h-66Z" fill="#05070b" opacity=".25"/>
    <path d="M118 453h276" stroke="#eff7ff" stroke-width="16" stroke-linecap="round" opacity=".9"/>
    <path d="M188 116c72 42 88 88 45 138-46 55-16 101 82 139" fill="none" stroke="url(#route)" stroke-width="20" stroke-linecap="round" stroke-linejoin="round" filter="url(#glow)"/>
    <g filter="url(#glow)">
      <circle cx="188" cy="116" r="19" fill="#8ee6ff"/>
      <circle cx="252" cy="202" r="17" fill="#20a7ff"/>
      <circle cx="212" cy="294" r="18" fill="#42d7ff"/>
      <circle cx="315" cy="393" r="21" fill="#51f2a3"/>
    </g>
    <path d="M92 452 182 86h152l86 366" fill="none" stroke="#ffffff" stroke-width="3" opacity=".1"/>
    <rect x="20" y="20" width="472" height="472" rx="92" fill="none" stroke="#ffffff" stroke-width="2" opacity=".14"/>
  </g>
</svg>
